<svg xmlns="http://www.w3.org/2000/svg" viewBox="0 0 122.88 100.33">
  <path fill="white" d="M102.79,7.11l2.59,3.41c0.68,0.9,0.51,2.19-0.39,2.87l-2.75,2.09c0.5,1.33,0.82,2.75,0.95,4.2l3.13,0.43 c1.12,0.15,1.9,1.19,1.75,2.31l-0.58,4.25c-0.15,1.12-1.19,1.91-2.31,1.75l-3.42-0.47c-0.61,1.33-1.39,2.55-2.31,3.64l1.92,2.52 c0.68,0.9,0.5,2.19-0.4,2.87l-3.41,2.59c-0.9,0.68-2.19,0.5-2.87-0.39l-2.09-2.75c-1.34,0.5-2.75,0.82-4.21,0.95l-0.43,3.13 c-0.15,1.12-1.19,1.9-2.31,1.75l-4.25-0.58c-1.12-0.15-1.9-1.19-1.75-2.31l0.47-3.42c-1.32-0.61-2.55-1.39-3.64-2.3l-2.52,1.91 c-0.9,0.68-2.19,0.51-2.87-0.39l-2.59-3.41c-0.68-0.9-0.51-2.19,0.39-2.87l2.75-2.09c-0.5-1.34-0.82-2.75-0.95-4.2l-3.13-0.43 c-1.12-0.15-1.91-1.19-1.75-2.31l0.58-4.25c0.16-1.12,1.19-1.9,2.31-1.75l3.42,0.47c0.61-1.32,1.39-2.55,2.3-3.64l-1.91-2.52 C71.83,7.28,72,5.99,72.9,5.31l3.41-2.59c0.9-0.68,2.19-0.51,2.87,0.39l2.09,2.75c1.33-0.5,2.75-0.82,4.2-0.95l0.43-3.13 c0.15-1.12,1.19-1.91,2.31-1.76l4.25,0.58c1.12,0.15,1.91,1.19,1.75,2.31l-0.47,3.42c1.33,0.61,2.55,1.39,3.65,2.31l2.52-1.91 C100.81,6.04,102.1,6.21,102.79,7.11L102.79,7.11L102.79,7.11z M29.67,67.12v-16.5h8.5c1.58,0,2.78,0.13,3.61,0.41 c0.83,0.27,1.51,0.77,2.01,1.5c0.51,0.74,0.77,1.63,0.77,2.68c0,0.91-0.2,1.71-0.59,2.37c-0.39,0.67-0.93,1.21-1.61,1.62 c-0.43,0.26-1.03,0.48-1.79,0.65c0.61,0.21,1.05,0.4,1.32,0.61c0.19,0.14,0.46,0.43,0.81,0.87c0.35,0.44,0.59,0.79,0.71,1.03 l2.48,4.77h-5.76l-2.72-5.03c-0.35-0.65-0.65-1.08-0.92-1.27c-0.37-0.25-0.79-0.38-1.25-0.38h-0.45v6.68H29.67L29.67,67.12z M47.65,95.85h-9.52l-1.37,4.48h-8.58l10.23-27.19h9.2l10.19,27.19h-8.8L47.65,95.85L47.65,95.85z M45.87,89.96l-2.97-9.78 l-2.98,9.78H45.87L45.87,89.96z M59.78,73.14h13.98c3.05,0,5.33,0.72,6.84,2.17c1.51,1.45,2.27,3.52,2.27,6.19 c0,2.75-0.83,4.9-2.48,6.45c-1.65,1.55-4.18,2.32-7.57,2.32h-4.61v10.06h-8.43V73.14L59.78,73.14z M68.21,84.76h2.07 c1.63,0,2.78-0.28,3.44-0.85c0.66-0.56,0.99-1.29,0.99-2.16c0-0.85-0.29-1.58-0.86-2.17c-0.57-0.59-1.65-0.89-3.23-0.89h-2.41 V84.76L68.21,84.76z M86.27,73.14h8.43v27.19h-8.43V73.14L86.27,73.14z M34.79,57.32h2.15c0.23,0,0.68-0.08,1.35-0.23 c0.34-0.07,0.62-0.24,0.83-0.52c0.22-0.28,0.32-0.6,0.32-0.96c0-0.53-0.17-0.95-0.51-1.23c-0.34-0.29-0.97-0.43-1.9-0.43h-2.24 V57.32L34.79,57.32z M46.87,50.62h13.65v3.52h-8.53v2.63h7.91v3.36h-7.91v3.25h8.78v3.73h-13.9V50.62L46.87,50.62z M61.98,61.66 l4.84-0.3c0.1,0.79,0.32,1.38,0.64,1.79c0.53,0.66,1.28,1,2.25,1c0.72,0,1.29-0.17,1.68-0.51c0.39-0.34,0.59-0.74,0.59-1.19 c0-0.43-0.19-0.81-0.56-1.15c-0.37-0.34-1.24-0.65-2.61-0.96c-2.23-0.5-3.82-1.17-4.78-2c-0.96-0.83-1.44-1.89-1.44-3.18 c0-0.85,0.25-1.65,0.74-2.4c0.49-0.75,1.23-1.35,2.22-1.78c0.99-0.43,2.34-0.64,4.06-0.64c2.11,0,3.71,0.39,4.82,1.18 c1.1,0.79,1.76,2.03,1.97,3.75l-4.79,0.29c-0.13-0.75-0.4-1.3-0.8-1.63c-0.41-0.34-0.98-0.51-1.69-0.51 c-0.59,0-1.04,0.13-1.34,0.38c-0.3,0.25-0.45,0.56-0.45,0.92c0,0.26,0.13,0.49,0.37,0.71c0.24,0.21,0.8,0.42,1.7,0.61 c2.23,0.48,3.83,0.97,4.79,1.46c0.96,0.49,1.67,1.1,2.1,1.83c0.44,0.72,0.66,1.54,0.66,2.44c0,1.06-0.29,2.03-0.88,2.92 c-0.58,0.89-1.4,1.57-2.45,2.03c-1.05,0.46-2.37,0.69-3.97,0.69c-2.8,0-4.75-0.54-5.83-1.62C62.74,64.69,62.13,63.32,61.98,61.66 L61.98,61.66z M77.69,50.62h15.51v4.08H88v12.42H82.9V54.7h-5.21V50.62L77.69,50.62z M60.53,11.46c-1.83-0.14-3.68-0.12-5.51,0.06 c-5.63,0.54-11.1,2.59-15.62,6.1c-5.23,4.05-9.2,10.11-10.73,18.14l-0.48,2.51l-2.5,0.44c-2.45,0.43-4.64,1.02-6.56,1.77 c-1.86,0.72-3.52,1.61-4.97,2.66c-1.16,0.84-2.16,1.78-3.01,2.8c-2.63,3.15-3.85,7.1-3.82,11.1c0.03,4.06,1.35,8.16,3.79,11.53 c0.91,1.25,1.96,2.4,3.16,3.4c1.22,1.01,2.59,1.85,4.13,2.48c0.87,0.36,1.8,0.66,2.77,0.9v7.49c-2-0.36-3.84-0.9-5.56-1.61 c-2.27-0.94-4.28-2.15-6.05-3.63c-1.68-1.4-3.15-2.99-4.4-4.72C1.84,68.28,0.04,62.66,0,57.06c-0.04-5.66,1.72-11.29,5.52-15.85 c-0.67-0.73-1.32-1.51-1.93-2.33c-0.68-0.95-1.28-1.94-1.81-2.96c-1.08-2.17-1.9-4.42-2.43-6.72c-0.53-2.31-0.79-4.67-0.79-7.08 c0-6.35,1.85-12.57,5.45-17.66c3.87-5.35,9.65-9.01,16.15-10.61c0.43-0.1,0.85-0.17,1.28-0.22c0.43-0.04,0.84-0.06,1.25-0.06 c2.4,0,4.79,0.39,7.08,1.16c2.47,0.82,4.73,2.09,6.72,3.77c1.98,1.68,3.55,3.77,4.69,6.26c1.15,2.49,1.72,5.2,1.72,8.13 c0,0.5-0.01,1-0.04,1.5c-0.01,0.3-0.04,0.61-0.08,0.91c-0.09,0.72-0.21,1.44-0.35,2.16c-0.21,1.13-0.47,2.26-0.78,3.37 c-0.69,2.35-1.72,4.64-3.08,6.82c-1.36,2.17-3.08,4.12-5.17,5.84c-2.1,1.71-4.51,3.1-7.24,4.18v-7.49 c0.99-0.42,1.86-0.91,2.61-1.48c0.75-0.57,1.35-1.22,1.8-1.96c0.44-0.74,0.66-1.55,0.66-2.42c0-1.02-0.28-1.97-0.85-2.86 c-0.57-0.89-1.37-1.63-2.41-2.22c-1.04-0.59-2.23-1.02-3.57-1.29c-1.34-0.26-2.77-0.39-4.28-0.39c-3.09,0-5.76,0.62-8.01,1.87 c-2.25,1.25-3.99,2.94-5.22,5.06c-1.22,2.12-1.94,4.51-2.16,7.17c-0.22,2.65,0.16,5.25,1.1,7.79c1.07,2.88,2.86,5.33,5.37,7.37 c2.5,2.05,5.43,3.61,8.78,4.67c3.34,1.06,6.85,1.59,10.53,1.59c1.6,0,3.18-0.17,4.74-0.5c1.56-0.33,3.1-0.8,4.63-1.41 c1.53-0.6,3.02-1.36,4.45-2.29c1.43-0.93,2.74-2.01,3.93-3.24c1.19-1.22,2.17-2.6,2.93-4.11c0.76-1.52,1.31-3.1,1.65-4.74 c0.33-1.65,0.5-3.33,0.5-5.05c0-0.93-0.1-1.85-0.3-2.77c-0.2-0.92-0.49-1.82-0.86-2.69c-0.38-0.87-0.85-1.68-1.42-2.41 c-0.57-0.73-1.25-1.35-2.05-1.85c-0.8-0.5-1.72-0.89-2.76-1.18C62.74,11.6,61.66,11.48,60.53,11.46L60.53,11.46z M103.86,74.76 l-1.56,1.33l1.56,1.33l1.57-1.33L103.86,74.76z M97.98,76.75c0.7,0.57,1.32,1.06,1.85,1.47c0.52,0.41,1.09,0.83,1.7,1.27 c0.61,0.44,1.09,0.82,1.44,1.15c0.36,0.33,0.63,0.7,0.82,1.11c0.18,0.4,0.28,0.82,0.28,1.25c0,0.59-0.18,1.14-0.54,1.66 c-0.36,0.51-0.87,0.96-1.52,1.33c-0.65,0.37-1.42,0.65-2.31,0.84c-0.89,0.19-1.85,0.28-2.86,0.28c-1.42,0-2.74-0.18-3.96-0.55 c-1.22-0.36-2.28-0.86-3.18-1.48c-0.9-0.63-1.61-1.4-2.13-2.3c-0.52-0.9-0.79-1.92-0.79-3.07c0-1.06,0.28-2,0.85-2.84 c0.56-0.84,1.34-1.56,2.34-2.16c0.99-0.6,2.16-1.07,3.52-1.4C96.01,76.19,96.89,76.34,97.98,76.75L97.98,76.75z M100.62,79.14 c-0.33-0.27-0.7-0.58-1.1-0.93c-0.4-0.35-0.82-0.73-1.27-1.14c-0.45-0.41-0.87-0.82-1.26-1.23c-0.38-0.41-0.7-0.79-0.96-1.15 c-0.26-0.36-0.39-0.7-0.39-1.01c0-0.29,0.1-0.53,0.31-0.71c0.21-0.18,0.49-0.27,0.84-0.27c0.27,0,0.52,0.09,0.75,0.27 c0.23,0.18,0.52,0.41,0.88,0.69c0.36,0.28,0.75,0.6,1.17,0.95c0.42,0.35,0.83,0.73,1.24,1.15c0.41,0.42,0.8,0.86,1.16,1.3 c0.36,0.45,0.68,0.9,0.96,1.35c0.28,0.45,0.48,0.91,0.61,1.36c0.13,0.45,0.19,0.87,0.19,1.27c0,0.4-0.08,0.8-0.24,1.2 c-0.16,0.4-0.38,0.79-0.67,1.17c-0.29,0.38-0.66,0.72-1.12,1c-0.45,0.28-1.01,0.5-1.67,0.67c-0.66,0.17-1.44,0.25-2.34,0.25 c-0.78,0-1.48-0.08-2.11-0.23c-0.63-0.15-1.17-0.35-1.64-0.6c-0.48-0.25-0.88-0.53-1.22-0.84c-0.34-0.31-0.6-0.64-0.78-1 c-0.18-0.36-0.27-0.71-0.27-1.05c0-0.24,0.07-0.48,0.2-0.73c0.13-0.25,0.33-0.51,0.6-0.79c0.27-0.28,0.63-0.56,1.06-0.86 c0.43-0.3,0.94-0.6,1.54-0.91c0.6-0.31,1.28-0.63,2.03-0.95c0.75-0.32,1.56-0.67,2.45-1.04c0.88-0.38,1.67-0.77,2.37-1.17 c0.69-0.4,1.27-0.8,1.75-1.21c0.48-0.41,0.86-0.8,1.14-1.17c0.28-0.37,0.43-0.71,0.43-1.02c0-0.28-0.11-0.52-0.34-0.71 c-0.22-0.19-0.54-0.29-0.96-0.29c-0.38,0-0.69,0.1-0.92,0.3c-0.23,0.2-0.36,0.44-0.39,0.72c-0.03,0.27,0.03,0.55,0.19,0.84 c0.15,0.29,0.38,0.58,0.68,0.86c0.3,0.28,0.68,0.56,1.15,0.85c0.46,0.29,1,0.58,1.62,0.86C99.9,78.68,100.28,78.93,100.62,79.14 L100.62,79.14z"
      ></path>
    </svg>